<mxfile host="app.diagrams.net" modified="2023-10-06T08:51:41.759Z" agent="Mozilla/5.0 (Windows NT 10.0; Win64; x64) AppleWebKit/537.36 (KHTML, like Gecko) Chrome/117.0.0.0 Safari/537.36 Edg/117.0.2045.43" etag="2JOtWEmYIorTybSBuiYG" version="22.0.3" type="device">
  <diagram id="Ect9hUOo76AR6xFeidzp" name="Page-1">
    <mxGraphModel dx="1124" dy="831" grid="1" gridSize="10" guides="1" tooltips="1" connect="1" arrows="1" fold="1" page="1" pageScale="1" pageWidth="827" pageHeight="1169" math="0" shadow="0">
      <root>
        <mxCell id="0" />
        <mxCell id="1" parent="0" />
        <mxCell id="FtwJ78YgJAvYqGlGawMD-7" value="" style="rounded=0;whiteSpace=wrap;html=1;fillColor=#dae8fc;strokeColor=#6c8ebf;opacity=40;" parent="1" vertex="1">
          <mxGeometry x="40" y="620" width="660" height="380" as="geometry" />
        </mxCell>
        <mxCell id="Myysj3SkNhkPMmiPacBF-2" value="" style="ellipse;whiteSpace=wrap;html=1;fillColor=#000000;rotation=90;" parent="1" vertex="1">
          <mxGeometry x="-20" y="810" width="250" height="120" as="geometry" />
        </mxCell>
        <mxCell id="Myysj3SkNhkPMmiPacBF-7" value="" style="rounded=0;whiteSpace=wrap;html=1;" parent="1" vertex="1">
          <mxGeometry x="480" y="487" width="190" height="510" as="geometry" />
        </mxCell>
        <mxCell id="Myysj3SkNhkPMmiPacBF-8" value="" style="endArrow=none;dashed=1;html=1;rounded=0;strokeWidth=6;strokeColor=#0000FF;" parent="1" edge="1">
          <mxGeometry width="50" height="50" relative="1" as="geometry">
            <mxPoint x="70" y="620" as="sourcePoint" />
            <mxPoint x="710" y="620" as="targetPoint" />
          </mxGeometry>
        </mxCell>
        <mxCell id="Myysj3SkNhkPMmiPacBF-9" value="&lt;font style=&quot;font-size: 25px;&quot;&gt;Water Surface&lt;/font&gt;" style="edgeLabel;html=1;align=center;verticalAlign=middle;resizable=0;points=[];fontSize=25;" parent="Myysj3SkNhkPMmiPacBF-8" vertex="1" connectable="0">
          <mxGeometry x="0.3032" y="1" relative="1" as="geometry">
            <mxPoint x="-287" y="-19" as="offset" />
          </mxGeometry>
        </mxCell>
        <mxCell id="Myysj3SkNhkPMmiPacBF-10" value="" style="shape=curlyBracket;whiteSpace=wrap;html=1;rounded=1;flipH=1;fillColor=#000000;rotation=90;" parent="1" vertex="1">
          <mxGeometry x="280" y="810" width="20" height="380" as="geometry" />
        </mxCell>
        <mxCell id="Myysj3SkNhkPMmiPacBF-11" value="&lt;p class=&quot;MsoNormal&quot; style=&quot;font-size: 25px;&quot;&gt;&lt;span lang=&quot;EN-US&quot; style=&quot;font-size: 25px;&quot;&gt;&lt;font style=&quot;font-size: 25px;&quot;&gt;Î”z&lt;/font&gt;&lt;/span&gt;&lt;/p&gt;" style="text;html=1;strokeColor=none;fillColor=none;spacing=5;spacingTop=-20;whiteSpace=wrap;overflow=hidden;rounded=0;labelBackgroundColor=none;fontSize=25;" parent="1" vertex="1">
          <mxGeometry x="270" y="997" width="71" height="50" as="geometry" />
        </mxCell>
        <mxCell id="Myysj3SkNhkPMmiPacBF-12" value="" style="shape=mxgraph.signs.tech.camera_1;html=1;pointerEvents=1;fillColor=#000000;strokeColor=none;verticalLabelPosition=bottom;verticalAlign=top;align=center;rotation=90;" parent="1" vertex="1">
          <mxGeometry x="530" y="370" width="98" height="84" as="geometry" />
        </mxCell>
        <mxCell id="Myysj3SkNhkPMmiPacBF-13" value="" style="endArrow=none;html=1;rounded=0;exitX=0.5;exitY=0;exitDx=0;exitDy=0;entryX=0.999;entryY=0.635;entryDx=0;entryDy=0;entryPerimeter=0;strokeWidth=3;fillColor=#dae8fc;strokeColor=#6c8ebf;startArrow=none;" parent="1" source="Myysj3SkNhkPMmiPacBF-10" target="Myysj3SkNhkPMmiPacBF-7" edge="1">
          <mxGeometry width="50" height="50" relative="1" as="geometry">
            <mxPoint x="390" y="720" as="sourcePoint" />
            <mxPoint x="680" y="800" as="targetPoint" />
          </mxGeometry>
        </mxCell>
        <mxCell id="Myysj3SkNhkPMmiPacBF-14" value="&lt;font style=&quot;font-size: 25px;&quot;&gt;Mirror&lt;/font&gt;" style="edgeLabel;html=1;align=center;verticalAlign=middle;resizable=0;points=[];rotation=0;fontSize=25;" parent="Myysj3SkNhkPMmiPacBF-13" vertex="1" connectable="0">
          <mxGeometry x="0.3472" y="1" relative="1" as="geometry">
            <mxPoint x="13" y="38" as="offset" />
          </mxGeometry>
        </mxCell>
        <mxCell id="FtwJ78YgJAvYqGlGawMD-5" value="&lt;font style=&quot;font-size: 25px;&quot;&gt;Clear&lt;br style=&quot;font-size: 25px;&quot;&gt;Window&lt;/font&gt;" style="edgeLabel;html=1;align=center;verticalAlign=middle;resizable=0;points=[];rotation=0;labelBackgroundColor=none;fontSize=25;" parent="Myysj3SkNhkPMmiPacBF-13" vertex="1" connectable="0">
          <mxGeometry x="0.3472" y="1" relative="1" as="geometry">
            <mxPoint x="-187" y="98" as="offset" />
          </mxGeometry>
        </mxCell>
        <mxCell id="FtwJ78YgJAvYqGlGawMD-9" value="&lt;span style=&quot;font-size: 25px;&quot;&gt;Water&lt;/span&gt;" style="edgeLabel;html=1;align=center;verticalAlign=middle;resizable=0;points=[];rotation=0;labelBackgroundColor=none;fontSize=25;" parent="Myysj3SkNhkPMmiPacBF-13" vertex="1" connectable="0">
          <mxGeometry x="0.3472" y="1" relative="1" as="geometry">
            <mxPoint x="-247" y="-142" as="offset" />
          </mxGeometry>
        </mxCell>
        <mxCell id="FtwJ78YgJAvYqGlGawMD-10" value="&lt;span style=&quot;font-size: 25px;&quot;&gt;Air&lt;/span&gt;" style="edgeLabel;html=1;align=center;verticalAlign=middle;resizable=0;points=[];rotation=0;labelBackgroundColor=none;fontSize=25;" parent="Myysj3SkNhkPMmiPacBF-13" vertex="1" connectable="0">
          <mxGeometry x="0.3472" y="1" relative="1" as="geometry">
            <mxPoint x="-77" y="-142" as="offset" />
          </mxGeometry>
        </mxCell>
        <mxCell id="Myysj3SkNhkPMmiPacBF-17" value="" style="shape=flexArrow;endArrow=classic;html=1;rounded=0;fontSize=16;strokeColor=#000000;strokeWidth=6;movable=1;resizable=1;rotatable=1;deletable=1;editable=1;connectable=1;exitX=0.5;exitY=0;exitDx=0;exitDy=0;" parent="1" edge="1">
          <mxGeometry width="50" height="50" relative="1" as="geometry">
            <mxPoint x="390.70381998170296" y="440.50864594297127" as="sourcePoint" />
            <mxPoint x="170" y="860" as="targetPoint" />
          </mxGeometry>
        </mxCell>
        <mxCell id="Myysj3SkNhkPMmiPacBF-18" value="" style="endArrow=classic;html=1;rounded=0;entryX=1;entryY=0.5;entryDx=0;entryDy=0;entryPerimeter=0;" parent="1" target="Myysj3SkNhkPMmiPacBF-12" edge="1">
          <mxGeometry width="50" height="50" relative="1" as="geometry">
            <mxPoint x="170" y="860" as="sourcePoint" />
            <mxPoint x="360" y="640" as="targetPoint" />
            <Array as="points">
              <mxPoint x="590" y="890" />
            </Array>
          </mxGeometry>
        </mxCell>
        <mxCell id="FtwJ78YgJAvYqGlGawMD-2" value="" style="rounded=0;whiteSpace=wrap;html=1;fillColor=#0000FF;" parent="1" vertex="1">
          <mxGeometry x="474.75" y="800" width="10" height="197" as="geometry" />
        </mxCell>
        <mxCell id="FtwJ78YgJAvYqGlGawMD-8" value="" style="shape=mxgraph.signs.nature.sun_2;html=1;pointerEvents=1;fillColor=#000000;strokeColor=none;verticalLabelPosition=bottom;verticalAlign=top;align=center;labelBackgroundColor=none;" parent="1" vertex="1">
          <mxGeometry x="360" y="290" width="139" height="139" as="geometry" />
        </mxCell>
      </root>
    </mxGraphModel>
  </diagram>
</mxfile>
